<svg width="63" height="54" viewBox="0 0 63 54" fill="none" xmlns="http://www.w3.org/2000/svg">
<path d="M42.4091 35.432C42.4091 32.8011 33.8618 30.6701 23.3182 30.6701M42.4091 35.432C42.4091 38.063 33.8618 40.1939 23.3182 40.1939C12.7745 40.1939 4.22727 38.063 4.22727 35.432M42.4091 35.432V47.1868C42.4091 49.8987 33.8618 52.0987 23.3182 52.0987C12.7745 52.0987 4.22727 49.9011 4.22727 47.1868V35.432M42.4091 35.432C52.8382 35.432 61.5 33.082 61.5 30.6701V6.8606M23.3182 30.6701C12.7745 30.6701 4.22727 32.8011 4.22727 35.432M23.3182 30.6701C11.2691 30.6701 1.5 28.3201 1.5 25.9082V14.0035M23.3182 9.24155C11.2691 9.24155 1.5 11.3725 1.5 14.0035M1.5 14.0035C1.5 16.6344 11.2691 18.7654 23.3182 18.7654C23.3182 21.1773 32.19 23.5273 42.6191 23.5273C53.0455 23.5273 61.5 21.1773 61.5 18.7654M61.5 6.8606C61.5 4.22965 53.0455 2.09869 42.6191 2.09869C32.19 2.09869 23.7382 4.22965 23.7382 6.8606M61.5 6.8606C61.5 9.49155 53.0455 11.6225 42.6191 11.6225C32.1927 11.6225 23.7382 9.49155 23.7382 6.8606M23.7382 6.8606V31.0654" stroke="white" stroke-width="3"/>
</svg>
