<svg width="71" height="51" viewBox="0 0 71 51" fill="none" xmlns="http://www.w3.org/2000/svg">
<path d="M39.875 4.56298C39.875 3.37898 39.4141 2.24347 38.5936 1.40625C37.7731 0.569037 36.6603 0.0986938 35.5 0.0986938C34.3397 0.0986938 33.2269 0.569037 32.4064 1.40625C31.5859 2.24347 31.125 3.37898 31.125 4.56298C31.125 5.74698 31.5859 6.88249 32.4064 7.71971C33.2269 8.55692 34.3397 9.02727 35.5 9.02727C36.6603 9.02727 37.7731 8.55692 38.5936 7.71971C39.4141 6.88249 39.875 5.74698 39.875 4.56298ZM16.25 19.7416C17.4103 19.7416 18.5231 19.2712 19.3436 18.434C20.1641 17.5968 20.625 16.4613 20.625 15.2773C20.625 14.0933 20.1641 12.9578 19.3436 12.1205C18.5231 11.2833 17.4103 10.813 16.25 10.813C15.0897 10.813 13.9769 11.2833 13.1564 12.1205C12.3359 12.9578 11.875 14.0933 11.875 15.2773C11.875 16.4613 12.3359 17.5968 13.1564 18.434C13.9769 19.2712 15.0897 19.7416 16.25 19.7416ZM4 42.9558C2.06406 42.9558 0.5 44.5518 0.5 46.5273C0.5 48.5027 2.06406 50.0987 4 50.0987H67C68.9359 50.0987 70.5 48.5027 70.5 46.5273C70.5 44.5518 68.9359 42.9558 67 42.9558H4ZM54.75 19.7416C55.9103 19.7416 57.0231 19.2712 57.8436 18.434C58.6641 17.5968 59.125 16.4613 59.125 15.2773C59.125 14.0933 58.6641 12.9578 57.8436 12.1205C57.0231 11.2833 55.9103 10.813 54.75 10.813C53.5897 10.813 52.4769 11.2833 51.6564 12.1205C50.8359 12.9578 50.375 14.0933 50.375 15.2773C50.375 16.4613 50.8359 17.5968 51.6564 18.434C52.4769 19.2712 53.5897 19.7416 54.75 19.7416ZM22.375 31.5161L25.3172 37.0853C26.0062 38.3911 27.5922 38.871 28.8719 38.1791C30.1516 37.4871 30.6219 35.8576 29.9438 34.5518L25.9734 27.0183C26.1594 26.8286 26.3234 26.6166 26.4438 26.371L29.375 20.8018V26.8844C29.375 28.8599 30.9391 30.4558 32.875 30.4558H38.125C40.0609 30.4558 41.625 28.8599 41.625 26.8844V20.8018L44.5672 26.371C44.6984 26.6166 44.8516 26.8286 45.0375 27.0183L41.0672 34.5518C40.3781 35.8576 40.8594 37.4759 42.1391 38.1791C43.4188 38.8822 45.0047 38.3911 45.6938 37.0853L48.625 31.5161V35.813C48.625 37.7884 50.1891 39.3844 52.125 39.3844H57.375C59.3109 39.3844 60.875 37.7884 60.875 35.813V31.5161L63.8172 37.0853C64.5063 38.3911 66.0922 38.871 67.3719 38.1791C68.6516 37.4871 69.1219 35.8576 68.4437 34.5518L64.2984 26.7058C62.625 23.525 59.3656 21.5384 55.8219 21.5384H53.6781C51.8953 21.5384 50.1891 22.0407 48.7125 22.9447L45.0375 15.9916C43.3641 12.8107 40.1047 10.8241 36.5609 10.8241H34.4281C30.8844 10.8241 27.6359 12.8107 25.9516 15.9916L22.2766 22.9447C20.8 22.0407 19.0938 21.5384 17.3109 21.5384H15.1781C11.6344 21.5384 8.38594 23.525 6.70156 26.7058L2.56719 34.5407C1.87812 35.8465 2.35938 37.4648 3.63906 38.1679C4.91875 38.871 6.50469 38.3799 7.19375 37.0741L10.125 31.5161V35.813C10.125 37.7884 11.6891 39.3844 13.625 39.3844H18.875C20.8109 39.3844 22.375 37.7884 22.375 35.813V31.5161Z" fill="white"/>
</svg>
