<svg width="21" height="21" viewBox="0 0 21 21" fill="none" xmlns="http://www.w3.org/2000/svg">
<path d="M20.4515 5.36668V16.5493C20.4515 18.4827 19.2147 20.0493 17.6884 20.0493H3.2147C2.48186 20.0493 1.77904 19.6806 1.26085 19.0242C0.742656 18.3678 0.451538 17.4776 0.451538 16.5493V5.36668L10.1347 12.1133C10.3321 12.2507 10.5715 12.2507 10.7684 12.1133L20.4515 5.36668ZM17.6884 0.0493469C18.4097 0.0494318 19.1024 0.406782 19.6185 1.04506C20.1346 1.68335 20.4332 2.55195 20.4505 3.46535L10.4515 10.432L0.452591 3.46468L0.453643 3.40468C0.483118 2.50219 0.78691 1.64907 1.30149 1.02373C1.81607 0.398394 2.50159 0.0492632 3.2147 0.0493469H17.6884Z" fill="#1A6C8C"/>
</svg>
