<svg width="26" height="26" viewBox="0 0 26 26" fill="none" xmlns="http://www.w3.org/2000/svg">
<path d="M3 0.556183C2.33696 0.556183 1.70107 0.819575 1.23223 1.28842C0.763393 1.75726 0.5 2.39314 0.5 3.05618C0.5 3.71922 0.763393 4.35511 1.23223 4.82395C1.70107 5.29279 2.33696 5.55618 3 5.55618H23C23.663 5.55618 24.2989 5.29279 24.7678 4.82395C25.2366 4.35511 25.5 3.71922 25.5 3.05618C25.5 2.39314 25.2366 1.75726 24.7678 1.28842C24.2989 0.819575 23.663 0.556183 23 0.556183H3ZM0.5 13.0987C0.5 12.4356 0.763393 11.7998 1.23223 11.3309C1.70107 10.8621 2.33696 10.5987 3 10.5987H23C23.663 10.5987 24.2989 10.8621 24.7678 11.3309C25.2366 11.7998 25.5 12.4356 25.5 13.0987C25.5 13.7617 25.2366 14.3976 24.7678 14.8664C24.2989 15.3353 23.663 15.5987 23 15.5987H3C2.33696 15.5987 1.70107 15.3353 1.23223 14.8664C0.763393 14.3976 0.5 13.7617 0.5 13.0987ZM3 20.6412C2.33696 20.6412 1.70107 20.9046 1.23223 21.3734C0.763393 21.8423 0.5 22.4781 0.5 23.1412C0.5 23.8042 0.763393 24.4401 1.23223 24.9089C1.70107 25.3778 2.33696 25.6412 3 25.6412H23C23.663 25.6412 24.2989 25.3778 24.7678 24.9089C25.2366 24.4401 25.5 23.8042 25.5 23.1412C25.5 22.4781 25.2366 21.8423 24.7678 21.3734C24.2989 20.9046 23.663 20.6412 23 20.6412H3Z" fill="black"/>
</svg>
