<svg width="34" height="35" viewBox="0 0 34 35" fill="none" xmlns="http://www.w3.org/2000/svg">
<path d="M3.87897 12.1323V12.4803H4.227H29.2855H29.6335V12.1323V10.5661C29.6335 9.78156 29.3219 9.0291 28.7671 8.47431C28.2123 7.91953 27.4598 7.60785 26.6752 7.60785H6.83726C6.05267 7.60785 5.30022 7.91953 4.74543 8.47431C4.19064 9.0291 3.87897 9.78156 3.87897 10.5661V12.1323ZM29.6335 14.2205V13.8725H29.2855H4.227H3.87897V14.2205V24.1395C3.87897 24.9241 4.19064 25.6765 4.74543 26.2313C5.30022 26.7861 6.05267 27.0978 6.83726 27.0978H26.6752C27.4598 27.0978 28.2123 26.7861 28.7671 26.2313C29.3219 25.6765 29.6335 24.9241 29.6335 24.1395V14.2205ZM2.48683 10.5661C2.48683 9.41234 2.94518 8.30579 3.76104 7.48992C4.57691 6.67406 5.68346 6.21571 6.83726 6.21571H26.6752C27.8291 6.21571 28.9356 6.67406 29.7515 7.48992C30.5673 8.30579 31.0257 9.41234 31.0257 10.5661V24.1395C31.0257 25.2933 30.5673 26.3999 29.7515 27.2157C28.9356 28.0316 27.8291 28.4899 26.6752 28.4899H6.83726C5.68346 28.4899 4.57691 28.0316 3.76104 27.2157C2.94518 26.3999 2.48683 25.2933 2.48683 24.1395V10.5661ZM21.9768 20.8332H25.1091C25.2937 20.8332 25.4707 20.9065 25.6013 21.037C25.7318 21.1676 25.8052 21.3446 25.8052 21.5292C25.8052 21.7138 25.7318 21.8909 25.6013 22.0214C25.4707 22.152 25.2937 22.2253 25.1091 22.2253H21.9768C21.7922 22.2253 21.6151 22.152 21.4846 22.0214C21.354 21.8909 21.2807 21.7138 21.2807 21.5292C21.2807 21.3446 21.354 21.1676 21.4846 21.037C21.6151 20.9065 21.7922 20.8332 21.9768 20.8332Z" fill="#4CAF4F" stroke="#4CAF4F" stroke-width="0.696069"/>
</svg>
