<svg width="34" height="35" viewBox="0 0 34 35" fill="none" xmlns="http://www.w3.org/2000/svg">
<path d="M28.0622 29.882V27.0977C28.0622 25.6208 27.4755 24.2045 26.4312 23.1601C25.3869 22.1158 23.9705 21.5292 22.4936 21.5292H21.1015C20.7323 21.5292 20.3782 21.3825 20.1171 21.1214C19.856 20.8603 19.7094 20.5062 19.7094 20.137V13.1763C19.7094 12.4379 19.416 11.7297 18.8939 11.2075C18.3717 10.6854 17.6635 10.392 16.9251 10.392C16.1866 10.392 15.4784 10.6854 14.9563 11.2075C14.4341 11.7297 14.1408 12.4379 14.1408 13.1763V25.7056L10.7997 21.2507C10.5403 20.9049 10.204 20.6243 9.81741 20.431C9.4308 20.2377 9.00449 20.137 8.57224 20.137H7.96805C6.76385 20.137 5.78796 21.1129 5.78796 22.3171C5.78796 22.7125 5.89516 23.1009 6.09841 23.4392L9.96438 29.882M16.9251 6.21563V4.82349V6.21563ZM25.2779 14.5685H26.67H25.2779ZM7.1801 14.5685H8.57224H7.1801ZM10.4419 8.08527L9.45764 7.10103L10.4419 8.08527ZM23.4083 8.08527L24.3925 7.10103L23.4083 8.08527Z" fill="#4CAF4F"/>
<path d="M28.0622 29.882V27.0977C28.0622 25.6208 27.4755 24.2045 26.4312 23.1601C25.3869 22.1158 23.9705 21.5292 22.4936 21.5292H21.1015C20.7323 21.5292 20.3782 21.3825 20.1171 21.1214C19.856 20.8603 19.7094 20.5062 19.7094 20.137V13.1763C19.7094 12.4379 19.416 11.7297 18.8939 11.2075C18.3717 10.6854 17.6635 10.392 16.9251 10.392V10.392C16.1866 10.392 15.4784 10.6854 14.9563 11.2075C14.4341 11.7297 14.1408 12.4379 14.1408 13.1763V25.7056L10.7997 21.2507C10.5403 20.9049 10.204 20.6243 9.81741 20.431C9.4308 20.2377 9.00449 20.137 8.57224 20.137H7.96805C6.76385 20.137 5.78796 21.1129 5.78796 22.3171C5.78796 22.7125 5.89516 23.1009 6.09841 23.4392L9.96438 29.882M16.9251 6.21563V4.82349M25.2779 14.5685H26.67M7.1801 14.5685H8.57224M10.4419 8.08527L9.45764 7.10103M23.4083 8.08527L24.3925 7.10103" stroke="#4CAF4F" stroke-width="1.39214" stroke-linecap="round" stroke-linejoin="round"/>
</svg>
