<svg width="34" height="34" viewBox="0 0 34 34" fill="none" xmlns="http://www.w3.org/2000/svg">
<g clip-path="url(#clip0_60_169)">
<path d="M32.4404 26.8549L32.4405 26.8549C32.5717 26.7639 32.6836 26.6477 32.7695 26.5131L33.0628 26.7004L32.7695 26.5131C32.8555 26.3785 32.9138 26.2282 32.9411 26.0708C32.9684 25.9134 32.9642 25.7522 32.9287 25.5965L33.268 25.5191L32.9287 25.5965C32.8931 25.4408 32.827 25.2937 32.7341 25.1638L32.7326 25.1616C31.4255 23.3037 29.6446 21.8298 27.5749 20.8932L27.0702 20.6648L27.495 20.3093C28.7548 19.2548 29.659 17.8377 30.0845 16.2508C30.5101 14.664 30.4362 12.9846 29.873 11.4413C29.3098 9.89798 28.2846 8.56573 26.9371 7.62594C25.5896 6.68615 23.9852 6.18448 22.3423 6.18926L22.3407 6.18926C21.6096 6.18804 20.8819 6.28899 20.1787 6.48919L20.1725 6.49097L20.1724 6.49091C20.0163 6.53224 19.8699 6.60423 19.7418 6.70268C19.6137 6.80114 19.5064 6.9241 19.4263 7.06439C19.3462 7.20469 19.2948 7.35953 19.275 7.51988C19.2553 7.68024 19.2677 7.84292 19.3115 7.99844C19.3552 8.15396 19.4295 8.29923 19.53 8.42578L19.2573 8.64214L19.53 8.42578C19.6304 8.55233 19.755 8.65763 19.8965 8.73556L19.7287 9.04043L19.8965 8.73556C20.0381 8.81348 20.1937 8.86248 20.3543 8.87968C20.515 8.89689 20.6774 8.88197 20.8323 8.83579L20.8363 8.8346L20.8363 8.83462C21.3259 8.69493 21.8327 8.62454 22.3419 8.6255M32.4404 26.8549L22.3413 8.97353M32.4404 26.8549L32.4364 26.8578C32.2332 27.003 31.9896 27.0808 31.7398 27.08C31.5445 27.0789 31.3523 27.0312 31.179 26.941C31.0058 26.8509 30.8565 26.7209 30.7435 26.5617M32.4404 26.8549L30.4592 26.7625M22.3419 8.6255L22.3413 8.97353M22.3419 8.6255C22.3417 8.6255 22.3415 8.6255 22.3413 8.6255V8.97353M22.3419 8.6255C23.8186 8.62567 25.2347 9.21234 26.2788 10.2565C27.3232 11.3008 27.9098 12.7172 27.9098 14.1941C27.9098 15.6709 27.3232 17.0873 26.2788 18.1316C25.2345 19.1759 23.8182 19.7626 22.3413 19.7626C22.0182 19.7626 21.7084 19.8909 21.4799 20.1194C21.2515 20.3478 21.1232 20.6577 21.1232 20.9807C21.1232 21.3038 21.2515 21.6136 21.4799 21.8421C21.7084 22.0705 22.0182 22.1989 22.3413 22.1989H22.3417C23.9891 22.2007 25.612 22.5979 27.0741 23.3571C28.536 24.1163 29.7944 25.2152 30.7435 26.5617M22.3413 8.97353C23.7259 8.97353 25.0537 9.52355 26.0327 10.5026C27.0118 11.4816 27.5618 12.8095 27.5618 14.1941C27.5618 15.5786 27.0118 16.9065 26.0327 17.8855C25.0537 18.8646 23.7259 19.4146 22.3413 19.4146C21.9259 19.4146 21.5276 19.5796 21.2338 19.8733C20.9401 20.167 20.7751 20.5654 20.7751 20.9807C20.7751 21.3961 20.9401 21.7945 21.2338 22.0882C21.5276 22.3819 21.9259 22.5469 22.3413 22.5469C23.933 22.5486 25.5011 22.9324 26.9137 23.666C28.3263 24.3995 29.5422 25.4614 30.4592 26.7625M30.7435 26.5617C30.7433 26.5615 30.7432 26.5613 30.7431 26.5611L30.4592 26.7625M30.7435 26.5617C30.7435 26.5618 30.7436 26.5619 30.7437 26.562L30.4592 26.7625M16.8576 20.3098L16.4348 20.6655L16.9381 20.8932C19.0077 21.8298 20.7887 23.3037 22.0958 25.1616L22.1008 25.1687L22.1061 25.1755C22.2076 25.3056 22.2817 25.455 22.3237 25.6145C22.3658 25.7741 22.375 25.9406 22.3508 26.1038C22.3266 26.267 22.2694 26.4237 22.1829 26.5641C22.0963 26.7046 21.9821 26.8261 21.8471 26.9211C21.7122 27.0161 21.5594 27.0827 21.3979 27.1168C21.2365 27.151 21.0698 27.1519 20.9079 27.1197C20.7461 27.0875 20.5925 27.0227 20.4564 26.9293C20.3204 26.8359 20.2047 26.7158 20.1165 26.5764L20.112 26.5693L20.1072 26.5625C19.1601 25.2134 17.902 24.1123 16.4395 23.3521C14.9769 22.5919 13.3528 22.1951 11.7045 22.1951C10.0561 22.1951 8.43205 22.5919 6.96948 23.3521C5.50692 24.1123 4.24888 25.2134 3.30172 26.5625L3.30094 26.5636C3.1896 26.7235 3.04114 26.854 2.8683 26.944C2.69546 27.0339 2.50338 27.0806 2.30853 27.08L2.3064 27.08C2.0565 27.0809 1.81267 27.0031 1.60937 26.8578L1.6077 26.8566C1.34418 26.6706 1.16521 26.3877 1.11002 26.0699C1.05485 25.7522 1.1279 25.4256 1.31315 25.1616C2.62025 23.3037 4.4012 21.8298 6.47082 20.8932L6.97413 20.6655L6.55138 20.3098C5.29495 19.2529 4.39393 17.8351 3.97048 16.2488C3.54702 14.6624 3.62161 12.9842 4.18414 11.4417C4.74667 9.89921 5.76992 8.56699 7.11516 7.62566C8.46041 6.68434 10.0626 6.17946 11.7045 6.17946C13.3464 6.17946 14.9485 6.68434 16.2938 7.62566C17.639 8.56699 18.6623 9.89921 19.2248 11.4417C19.7873 12.9842 19.8619 14.6624 19.4385 16.2488C19.015 17.8351 18.114 19.2529 16.8576 20.3098ZM7.07438 11.1003C6.4625 12.0161 6.13591 13.0927 6.13591 14.1941C6.13591 15.6709 6.7226 17.0873 7.76691 18.1316C8.81121 19.1759 10.2276 19.7626 11.7045 19.7626C12.8058 19.7626 13.8824 19.436 14.7982 18.8241C15.7139 18.2123 16.4277 17.3426 16.8491 16.325C17.2706 15.3075 17.3809 14.1879 17.166 13.1077C16.9512 12.0275 16.4208 11.0353 15.642 10.2565C14.8633 9.47772 13.871 8.94736 12.7908 8.7325C11.7106 8.51763 10.591 8.62791 9.57347 9.04938C8.55595 9.47085 7.68626 10.1846 7.07438 11.1003Z" fill="#4CAF4F" stroke="#4CAF4F" stroke-width="0.696069"/>
</g>
<defs>
<clipPath id="clip0_60_169">
<rect width="33.4113" height="33.4113" fill="white" transform="translate(0.21936 0.0986328)"/>
</clipPath>
</defs>
</svg>
