<svg width="24" height="22" viewBox="0 0 24 22" fill="none" xmlns="http://www.w3.org/2000/svg">
<mask id="path-1-inside-1_60_176" fill="white">
<path d="M14.7575 10.557C14.5899 10.557 14.4343 10.511 14.2961 10.4368V10.4388C14.2961 10.7025 14.1936 10.9501 14.0076 11.1356C13.8216 11.3216 13.5742 11.4241 13.3108 11.4241C13.1407 11.4241 12.9831 11.3769 12.8434 11.3008C12.8293 11.542 12.7329 11.7675 12.5609 11.9397C12.3749 12.1257 12.1274 12.2281 11.8639 12.2281C11.3402 12.2281 10.915 11.8165 10.8843 11.3006C10.7223 11.3882 10.5391 11.4341 10.3502 11.422C9.83508 11.3882 9.43167 10.9431 9.43167 10.4085V5.97683L8.92705 6.85107C8.73485 7.18545 8.37507 7.39306 7.9877 7.39306C7.79895 7.39306 7.61249 7.34353 7.44735 7.24891C7.2417 7.12969 7.0946 6.93831 7.03343 6.70935C6.97194 6.48026 7.00375 6.24066 7.12264 6.03533C7.12281 6.03533 8.77371 3.17643 8.87443 3.00082C8.8864 2.97442 8.92051 2.89784 8.94954 2.83257C8.97725 2.77025 9.00103 2.7063 9.02383 2.64201C9.52169 1.23645 10.7545 0.363346 12.2412 0.363346C14.1719 0.363346 15.7426 2.06656 15.7426 4.16012L15.7428 9.57161C15.7428 9.83498 15.6404 10.0824 15.4546 10.2686C15.2687 10.4546 15.0212 10.5571 14.7575 10.5571L14.7575 10.557ZM12.2412 0.886889C10.9637 0.886889 9.94548 1.60848 9.5173 2.8171C9.48991 2.89385 9.46138 2.97059 9.42809 3.04538C9.3315 3.26201 9.3315 3.26201 9.30427 3.29317L9.30067 3.29005C9.16587 3.5444 8.7654 4.23792 7.57596 6.29735C7.52709 6.38181 7.51413 6.47988 7.53906 6.57368C7.56432 6.66748 7.62483 6.74653 7.70863 6.7949C7.96872 6.9443 8.32493 6.84787 8.47317 6.58959L9.4668 4.86929C9.52617 4.76679 9.64621 4.71645 9.76133 4.74761C9.8758 4.77827 9.95533 4.88208 9.95533 5.00048V10.4086C9.95533 10.6638 10.1479 10.884 10.3845 10.8996C10.521 10.9068 10.6482 10.8611 10.7438 10.7656C10.8307 10.6787 10.8786 10.5629 10.8786 10.4391V6.90211C10.8786 6.75747 10.9959 6.64022 11.1405 6.64022C11.2852 6.64022 11.4024 6.75731 11.4024 6.90211L11.4023 11.2431C11.4023 11.4976 11.6094 11.7047 11.8639 11.7047C11.9875 11.7047 12.1036 11.6568 12.1907 11.5699C12.2776 11.4828 12.3255 11.3667 12.3255 11.2431V6.90211C12.3255 6.75747 12.4426 6.64021 12.5874 6.64021C12.7321 6.64021 12.8493 6.75731 12.8493 6.90211L12.8492 10.3984V10.4391C12.8492 10.6934 13.0563 10.9006 13.311 10.9006C13.4344 10.9006 13.5502 10.8525 13.6378 10.7653C13.7247 10.6785 13.7726 10.5627 13.7726 10.4389V6.90193C13.7726 6.75729 13.8897 6.64003 14.0345 6.64003C14.1791 6.64003 14.2964 6.75712 14.2964 6.90193L14.2961 9.57174C14.2961 9.82642 14.5032 10.0335 14.7575 10.0335C14.8813 10.0335 14.9971 9.98549 15.084 9.89874C15.1713 9.8115 15.219 9.69539 15.219 9.57174L15.2192 4.16025C15.2192 2.35552 13.8833 0.886943 12.2412 0.886943L12.2412 0.886889Z"/>
</mask>
<path d="M14.7575 10.557C14.5899 10.557 14.4343 10.511 14.2961 10.4368V10.4388C14.2961 10.7025 14.1936 10.9501 14.0076 11.1356C13.8216 11.3216 13.5742 11.4241 13.3108 11.4241C13.1407 11.4241 12.9831 11.3769 12.8434 11.3008C12.8293 11.542 12.7329 11.7675 12.5609 11.9397C12.3749 12.1257 12.1274 12.2281 11.8639 12.2281C11.3402 12.2281 10.915 11.8165 10.8843 11.3006C10.7223 11.3882 10.5391 11.4341 10.3502 11.422C9.83508 11.3882 9.43167 10.9431 9.43167 10.4085V5.97683L8.92705 6.85107C8.73485 7.18545 8.37507 7.39306 7.9877 7.39306C7.79895 7.39306 7.61249 7.34353 7.44735 7.24891C7.2417 7.12969 7.0946 6.93831 7.03343 6.70935C6.97194 6.48026 7.00375 6.24066 7.12264 6.03533C7.12281 6.03533 8.77371 3.17643 8.87443 3.00082C8.8864 2.97442 8.92051 2.89784 8.94954 2.83257C8.97725 2.77025 9.00103 2.7063 9.02383 2.64201C9.52169 1.23645 10.7545 0.363346 12.2412 0.363346C14.1719 0.363346 15.7426 2.06656 15.7426 4.16012L15.7428 9.57161C15.7428 9.83498 15.6404 10.0824 15.4546 10.2686C15.2687 10.4546 15.0212 10.5571 14.7575 10.5571L14.7575 10.557ZM12.2412 0.886889C10.9637 0.886889 9.94548 1.60848 9.5173 2.8171C9.48991 2.89385 9.46138 2.97059 9.42809 3.04538C9.3315 3.26201 9.3315 3.26201 9.30427 3.29317L9.30067 3.29005C9.16587 3.5444 8.7654 4.23792 7.57596 6.29735C7.52709 6.38181 7.51413 6.47988 7.53906 6.57368C7.56432 6.66748 7.62483 6.74653 7.70863 6.7949C7.96872 6.9443 8.32493 6.84787 8.47317 6.58959L9.4668 4.86929C9.52617 4.76679 9.64621 4.71645 9.76133 4.74761C9.8758 4.77827 9.95533 4.88208 9.95533 5.00048V10.4086C9.95533 10.6638 10.1479 10.884 10.3845 10.8996C10.521 10.9068 10.6482 10.8611 10.7438 10.7656C10.8307 10.6787 10.8786 10.5629 10.8786 10.4391V6.90211C10.8786 6.75747 10.9959 6.64022 11.1405 6.64022C11.2852 6.64022 11.4024 6.75731 11.4024 6.90211L11.4023 11.2431C11.4023 11.4976 11.6094 11.7047 11.8639 11.7047C11.9875 11.7047 12.1036 11.6568 12.1907 11.5699C12.2776 11.4828 12.3255 11.3667 12.3255 11.2431V6.90211C12.3255 6.75747 12.4426 6.64021 12.5874 6.64021C12.7321 6.64021 12.8493 6.75731 12.8493 6.90211L12.8492 10.3984V10.4391C12.8492 10.6934 13.0563 10.9006 13.311 10.9006C13.4344 10.9006 13.5502 10.8525 13.6378 10.7653C13.7247 10.6785 13.7726 10.5627 13.7726 10.4389V6.90193C13.7726 6.75729 13.8897 6.64003 14.0345 6.64003C14.1791 6.64003 14.2964 6.75712 14.2964 6.90193L14.2961 9.57174C14.2961 9.82642 14.5032 10.0335 14.7575 10.0335C14.8813 10.0335 14.9971 9.98549 15.084 9.89874C15.1713 9.8115 15.219 9.69539 15.219 9.57174L15.2192 4.16025C15.2192 2.35552 13.8833 0.886943 12.2412 0.886943L12.2412 0.886889Z" fill="#4CAF4F"/>
<path d="M14.7575 10.557V9.62895H18.0365L15.244 11.3475L14.7575 10.557ZM14.2961 10.4368H13.368V8.8861L14.7347 9.6189L14.2961 10.4368ZM14.0076 11.1356L13.3514 10.4794L13.3522 10.4785L14.0076 11.1356ZM12.8434 11.3008L11.9169 11.2466L12.0023 9.78593L13.2873 10.4857L12.8434 11.3008ZM12.5609 11.9397L13.2175 12.5956L13.2171 12.5959L12.5609 11.9397ZM10.8843 11.3006L10.4431 10.4841L11.7244 9.79158L11.8108 11.2456L10.8843 11.3006ZM10.3502 11.422L10.2907 12.3481L10.2895 12.3481L10.3502 11.422ZM9.43167 5.97683L8.62788 5.51287L10.3598 2.51246V5.97683H9.43167ZM8.92705 6.85107L8.12241 6.38857L8.12325 6.3871L8.92705 6.85107ZM7.44735 7.24891L6.98593 8.05418L6.98186 8.05183L7.44735 7.24891ZM7.03343 6.70935L7.92979 6.46875L7.93007 6.46979L7.03343 6.70935ZM7.12264 6.03533L6.31948 5.57027L6.58759 5.10724H7.12264V6.03533ZM8.87443 3.00082L9.71969 3.38408L9.70147 3.42427L9.67952 3.46255L8.87443 3.00082ZM8.94954 2.83257L8.10152 2.45544L8.10153 2.45543L8.94954 2.83257ZM9.02383 2.64201L9.89866 2.95188L9.89857 2.95214L9.02383 2.64201ZM15.7426 4.16012L14.8145 4.16015V4.16012H15.7426ZM15.7428 9.57161L16.6709 9.57158V9.57161H15.7428ZM15.4546 10.2686L16.1115 10.9243L16.1109 10.9249L15.4546 10.2686ZM14.7575 10.5571V11.4852H11.4785L14.2711 9.76664L14.7575 10.5571ZM12.2412 0.886889V-0.0412035H13.4716L13.1336 1.14186L12.2412 0.886889ZM9.5173 2.8171L10.3921 3.12702L10.3914 3.12902L9.5173 2.8171ZM9.42809 3.04538L10.276 3.42283L10.2757 3.42332L9.42809 3.04538ZM9.30427 3.29317L10.0032 3.90382L9.39602 4.59871L8.69765 3.99557L9.30427 3.29317ZM9.30067 3.29005L8.48062 2.85545L9.02594 1.82649L9.90729 2.58765L9.30067 3.29005ZM7.57596 6.29735L8.37964 6.76152L8.37925 6.76219L7.57596 6.29735ZM7.53906 6.57368L6.64287 6.81496L6.6421 6.81206L7.53906 6.57368ZM7.70863 6.7949L7.24636 7.59968L7.24463 7.59868L7.70863 6.7949ZM8.47317 6.58959L7.66822 6.1276L7.6695 6.12539L8.47317 6.58959ZM9.4668 4.86929L8.66313 4.40509L8.6637 4.40412L9.4668 4.86929ZM9.76133 4.74761L9.52116 5.64409L9.51886 5.64347L9.76133 4.74761ZM10.3845 10.8996L10.3355 11.8265L10.3236 11.8257L10.3845 10.8996ZM10.7438 10.7656L11.4001 11.4219L11.3995 11.4224L10.7438 10.7656ZM11.4024 6.90211H12.3305V6.90215L11.4024 6.90211ZM11.4023 11.2431H10.4742V11.243L11.4023 11.2431ZM12.1907 11.5699L12.8476 12.2255L12.8464 12.2268L12.1907 11.5699ZM12.8493 6.90211H13.7774V6.90215L12.8493 6.90211ZM12.8492 10.3984H11.9211V10.3984L12.8492 10.3984ZM13.6378 10.7653L14.2934 11.4221L14.2928 11.4227L13.6378 10.7653ZM14.2964 6.90193H15.2245V6.90204L14.2964 6.90193ZM14.2961 9.57174H13.368V9.57162L14.2961 9.57174ZM15.084 9.89874L15.7403 10.555L15.7397 10.5556L15.084 9.89874ZM15.219 9.57174H14.2909V9.57171L15.219 9.57174ZM15.2192 4.16025H16.1473V4.16027L15.2192 4.16025ZM12.2412 0.886943V1.81504H11.0108L11.3488 0.631976L12.2412 0.886943ZM14.7575 11.4851C14.4158 11.4851 14.1107 11.3905 13.8575 11.2548L14.7347 9.6189C14.7466 9.62533 14.7543 9.62779 14.7573 9.62861C14.7599 9.62931 14.7595 9.62895 14.7575 9.62895V11.4851ZM15.2242 10.4368V10.4388H13.368V10.4368H15.2242ZM15.2242 10.4388C15.2242 10.9479 15.0244 11.4323 14.663 11.7927L13.3522 10.4785C13.3589 10.4719 13.3621 10.4662 13.3641 10.4616C13.366 10.4569 13.368 10.4498 13.368 10.4388H15.2242ZM14.6639 11.7919C14.3037 12.152 13.8201 12.3522 13.3108 12.3522V10.496C13.3214 10.496 13.3285 10.4941 13.3332 10.4921C13.338 10.4901 13.3441 10.4866 13.3514 10.4794L14.6639 11.7919ZM13.3108 12.3522C12.9646 12.3522 12.6557 12.2553 12.3995 12.1158L13.2873 10.4857C13.2994 10.4923 13.307 10.4948 13.3101 10.4956C13.3127 10.4963 13.3125 10.496 13.3108 10.496V12.3522ZM13.7699 11.3549C13.7432 11.8117 13.5579 12.2548 13.2175 12.5956L11.9042 11.2838C11.9077 11.2803 11.9097 11.2773 11.9114 11.2734C11.9132 11.2693 11.9161 11.2608 11.9169 11.2466L13.7699 11.3549ZM13.2171 12.5959C12.8569 12.9562 12.3733 13.1562 11.8639 13.1562V11.3001C11.8747 11.3001 11.8817 11.2981 11.8865 11.2961C11.8912 11.2942 11.8973 11.2907 11.9046 11.2834L13.2171 12.5959ZM11.8639 13.1562C10.8392 13.1562 10.0171 12.3521 9.95788 11.3556L11.8108 11.2456C11.8117 11.2614 11.8182 11.2752 11.8296 11.2861C11.8352 11.2914 11.8408 11.2948 11.8458 11.2968C11.8501 11.2986 11.8556 11.3001 11.8639 11.3001V13.1562ZM11.3256 12.1171C11.0258 12.2791 10.6704 12.3725 10.2907 12.3481L10.4097 10.4958C10.4097 10.4958 10.4117 10.496 10.4166 10.4948C10.4218 10.4936 10.4309 10.4907 10.4431 10.4841L11.3256 12.1171ZM10.2895 12.3481C9.25898 12.2805 8.50358 11.4041 8.50358 10.4085H10.3598C10.3598 10.4398 10.3712 10.464 10.3854 10.4798C10.3994 10.4951 10.4088 10.4957 10.4109 10.4958L10.2895 12.3481ZM8.50358 10.4085V5.97683H10.3598V10.4085H8.50358ZM10.2355 6.4408L9.73085 7.31503L8.12325 6.3871L8.62788 5.51287L10.2355 6.4408ZM9.73169 7.31357C9.37307 7.93749 8.70553 8.32115 7.9877 8.32115V6.46496C8.04461 6.46496 8.09663 6.43341 8.12241 6.38857L9.73169 7.31357ZM7.9877 8.32115C7.63673 8.32115 7.29124 8.22912 6.98593 8.05417L7.90877 6.44364C7.93373 6.45795 7.96116 6.46496 7.9877 6.46496V8.32115ZM6.98186 8.05183C6.56518 7.81026 6.26189 7.41714 6.13679 6.94892L7.93007 6.46979C7.92922 6.46662 7.92691 6.46102 7.92244 6.45519C7.918 6.44941 7.9139 6.44661 7.91283 6.44599L6.98186 8.05183ZM6.13707 6.94996C6.01148 6.4821 6.07723 5.98864 6.31948 5.57027L7.92581 6.50039C7.92713 6.49811 7.92945 6.49281 7.93045 6.48531C7.93144 6.47779 7.93061 6.47179 7.92979 6.46875L6.13707 6.94996ZM7.12264 5.10724C6.66738 5.22657 6.32661 5.55816 6.32407 5.56244C6.32322 5.56387 6.32196 5.56601 6.32156 5.5667C6.32133 5.5671 6.32093 5.56777 6.3208 5.568C6.32071 5.56814 6.32054 5.56844 6.3205 5.56851C6.32037 5.56873 6.32041 5.56866 6.32076 5.56806C6.32139 5.56697 6.32245 5.56514 6.32399 5.56248C6.32704 5.55721 6.33162 5.54928 6.33767 5.53881C6.34975 5.5179 6.36751 5.48717 6.39018 5.44792C6.43551 5.36944 6.50039 5.25711 6.57857 5.12174C6.73492 4.85101 6.94443 4.48818 7.15709 4.11987C7.58311 3.38201 8.01987 2.62536 8.06934 2.5391L9.67952 3.46255C9.62827 3.5519 9.18922 4.3125 8.76457 5.04799C8.55189 5.41635 8.34235 5.77923 8.18596 6.05003C8.10777 6.18542 8.04286 6.29781 7.99748 6.37637C7.9748 6.41564 7.95697 6.44649 7.9448 6.46755C7.93873 6.47806 7.93402 6.48621 7.9308 6.49177C7.92921 6.49452 7.92789 6.4968 7.92693 6.49846C7.92649 6.49923 7.92593 6.5002 7.92539 6.50111C7.9252 6.50145 7.9246 6.50248 7.92388 6.5037C7.92343 6.50447 7.92213 6.50669 7.92126 6.50816C7.91869 6.51248 7.57791 6.84409 7.12264 6.96342V5.10724ZM8.02917 2.61757C8.03938 2.59503 8.07175 2.52239 8.10152 2.45544L9.79756 3.20969C9.76928 3.27329 9.73342 3.35381 9.71969 3.38408L8.02917 2.61757ZM8.10153 2.45543C8.11443 2.42643 8.1287 2.38937 8.14908 2.33188L9.89857 2.95214C9.87337 3.02322 9.84008 3.11407 9.79755 3.20971L8.10153 2.45543ZM8.14899 2.33213C8.77758 0.557517 10.3598 -0.564747 12.2412 -0.564747V1.29144C11.1491 1.29144 10.2658 1.91538 9.89866 2.95188L8.14899 2.33213ZM12.2412 -0.564747C14.7538 -0.564747 16.6707 1.62619 16.6707 4.16012H14.8145C14.8145 2.50693 13.59 1.29144 12.2412 1.29144V-0.564747ZM16.6707 4.16009L16.6709 9.57158L14.8147 9.57164L14.8145 4.16015L16.6707 4.16009ZM16.6709 9.57161C16.6709 10.0806 16.4712 10.5639 16.1115 10.9243L14.7978 9.61295C14.8051 9.6056 14.8087 9.59935 14.8107 9.59447C14.8127 9.58959 14.8147 9.58243 14.8147 9.57161H16.6709ZM16.1109 10.9249C15.7506 11.2851 15.267 11.4852 14.7575 11.4852V9.62897C14.7684 9.62897 14.7755 9.62699 14.7803 9.62503C14.785 9.62307 14.7911 9.61958 14.7984 9.61234L16.1109 10.9249ZM14.2711 9.76664L14.2711 9.76662L15.244 11.3475L15.2439 11.3475L14.2711 9.76664ZM12.2412 1.81498C11.3588 1.81498 10.6897 2.28702 10.3921 3.12702L8.64248 2.50718C9.20125 0.929932 10.5686 -0.0412035 12.2412 -0.0412035V1.81498ZM10.3914 3.12902C10.3621 3.21111 10.3241 3.3148 10.276 3.42283L8.58022 2.66792C8.59871 2.62639 8.61772 2.57658 8.64319 2.50518L10.3914 3.12902ZM10.2757 3.42332C10.2332 3.51864 10.1976 3.59914 10.1704 3.65367C10.1535 3.68751 10.1261 3.73967 10.0864 3.79744C10.0462 3.85597 10.0064 3.90012 10.0032 3.90382L8.60538 2.68251C8.60755 2.68002 8.60684 2.68083 8.60574 2.68211C8.60432 2.68375 8.60072 2.68796 8.59599 2.69373C8.59108 2.69971 8.58491 2.70742 8.57795 2.7166C8.57093 2.72586 8.56379 2.73571 8.55665 2.7461C8.54211 2.76726 8.53091 2.78579 8.52295 2.79981C8.51552 2.81289 8.51097 2.82195 8.50995 2.82399C8.5089 2.82609 8.50956 2.82485 8.51271 2.8181C8.51576 2.81156 8.52009 2.80213 8.5263 2.78842C8.53245 2.77482 8.53982 2.7584 8.5489 2.73811C8.55796 2.71785 8.56831 2.69464 8.58044 2.66743L10.2757 3.42332ZM8.69765 3.99557L8.69405 3.99245L9.90729 2.58765L9.91089 2.59076L8.69765 3.99557ZM10.1207 3.72465C9.97546 3.99873 9.56078 4.71646 8.37964 6.76152L6.77228 5.83318C7.97001 3.75939 8.35627 3.09008 8.48062 2.85545L10.1207 3.72465ZM8.37925 6.76219C8.45352 6.63386 8.47421 6.47902 8.43602 6.3353L6.6421 6.81206C6.55405 6.48074 6.60066 6.12976 6.77267 5.83252L8.37925 6.76219ZM8.43524 6.3324C8.39705 6.19055 8.30319 6.06649 8.17263 5.99113L7.24463 7.59868C6.94647 7.42656 6.73158 7.14442 6.64288 6.81496L8.43524 6.3324ZM8.1709 5.99013C8.06525 5.92945 7.96251 5.92985 7.89156 5.94895C7.82088 5.96798 7.73026 6.01952 7.66823 6.12761L9.27811 7.05157C8.87362 7.75632 7.94923 8.00341 7.24636 7.59968L8.1709 5.99013ZM7.6695 6.12539L8.66313 4.40509L10.2705 5.33348L9.27683 7.05378L7.6695 6.12539ZM8.6637 4.40412C8.93177 3.9413 9.47893 3.70969 10.0038 3.85175L9.51886 5.64347C9.81348 5.72321 10.1206 5.59228 10.2699 5.33446L8.6637 4.40412ZM10.0015 3.85113C10.5222 3.99062 10.8834 4.46246 10.8834 5.00048H9.02724C9.02724 5.3017 9.22942 5.56593 9.52116 5.64408L10.0015 3.85113ZM10.8834 5.00048V10.4086H9.02724V5.00048H10.8834ZM10.8834 10.4086C10.8834 10.3029 10.8442 10.2067 10.7799 10.1331C10.7157 10.0597 10.6024 9.98383 10.4455 9.9735L10.3236 11.8257C9.54229 11.7743 9.02724 11.0937 9.02724 10.4086H10.8834ZM10.4335 9.9728C10.3239 9.967 10.1899 10.0072 10.0881 10.1088L11.3995 11.4224C11.1065 11.715 10.718 11.8466 10.3355 11.8264L10.4335 9.9728ZM10.0876 10.1094C9.99948 10.1974 9.95053 10.3181 9.95053 10.4391H11.8067C11.8067 10.8077 11.662 11.16 11.4001 11.4219L10.0876 10.1094ZM9.95053 10.4391V6.90211H11.8067V10.4391H9.95053ZM9.95053 6.90211C9.95053 6.2449 10.4833 5.71212 11.1405 5.71212V7.56831C11.5085 7.56831 11.8067 7.27004 11.8067 6.90211H9.95053ZM11.1405 5.71212C11.7974 5.71212 12.3305 6.24437 12.3305 6.90211H10.4743C10.4743 7.27025 10.773 7.56831 11.1405 7.56831V5.71212ZM12.3305 6.90215L12.3303 11.2431L10.4742 11.243L10.4743 6.90208L12.3305 6.90215ZM12.3303 11.2431C12.3303 10.985 12.1219 10.7766 11.8639 10.7766V12.6328C11.0968 12.6328 10.4742 12.0102 10.4742 11.2431H12.3303ZM11.8639 10.7766C11.7431 10.7766 11.623 10.8253 11.5351 10.913L12.8464 12.2268C12.5843 12.4883 12.232 12.6328 11.8639 12.6328V10.7766ZM11.5338 10.9143C11.4461 11.0022 11.3974 11.1223 11.3974 11.2431H13.2536C13.2536 11.6111 13.1092 11.9635 12.8476 12.2255L11.5338 10.9143ZM11.3974 11.2431V6.90211H13.2536V11.2431H11.3974ZM11.3974 6.90211C11.3974 6.24528 11.9297 5.71212 12.5874 5.71212V7.56831C12.9556 7.56831 13.2536 7.26966 13.2536 6.90211H11.3974ZM12.5874 5.71212C13.2443 5.71212 13.7774 6.24436 13.7774 6.90211H11.9212C11.9212 7.27026 12.2199 7.56831 12.5874 7.56831V5.71212ZM13.7774 6.90215L13.7772 10.3985L11.9211 10.3984L11.9212 6.90207L13.7774 6.90215ZM13.7772 10.3984V10.4391H11.9211V10.3984H13.7772ZM13.7772 10.4391C13.7772 10.1804 13.5684 9.97246 13.311 9.97246V11.8286C12.5442 11.8286 11.9211 11.2065 11.9211 10.4391H13.7772ZM13.311 9.97246C13.1876 9.97246 13.0682 10.0226 12.9828 10.1078L14.2928 11.4227C14.0322 11.6824 13.6813 11.8286 13.311 11.8286V9.97246ZM12.9822 10.1084C12.8934 10.197 12.8445 10.3181 12.8445 10.4389H14.7007C14.7007 10.8074 14.556 11.16 14.2934 11.4221L12.9822 10.1084ZM12.8445 10.4389V6.90193H14.7007V10.4389H12.8445ZM12.8445 6.90193C12.8445 6.24509 13.3767 5.71194 14.0345 5.71194V7.56812C14.4026 7.56812 14.7007 7.26949 14.7007 6.90193H12.8445ZM14.0345 5.71194C14.6913 5.71194 15.2245 6.24417 15.2245 6.90193H13.3683C13.3683 7.27007 13.6669 7.56812 14.0345 7.56812V5.71194ZM15.2245 6.90204L15.2242 9.57185L13.368 9.57162L13.3683 6.90181L15.2245 6.90204ZM15.2242 9.57174C15.2242 9.31428 15.0162 9.10545 14.7575 9.10545V10.9616C13.9902 10.9616 13.368 10.3385 13.368 9.57174H15.2242ZM14.7575 9.10545C14.6358 9.10545 14.5157 9.15474 14.4284 9.24186L15.7397 10.5556C15.4786 10.8162 15.1269 10.9616 14.7575 10.9616V9.10545ZM14.4278 9.24248C14.3394 9.33085 14.2909 9.45147 14.2909 9.57174H16.1471C16.1471 9.9393 16.0032 10.2921 15.7403 10.555L14.4278 9.24248ZM14.2909 9.57171L14.2911 4.16022L16.1473 4.16027L16.1471 9.57176L14.2909 9.57171ZM14.2911 4.16025C14.2911 2.78351 13.29 1.81504 12.2412 1.81504V-0.0411501C14.4765 -0.0411501 16.1473 1.92753 16.1473 4.16025H14.2911ZM11.3488 0.631976L11.3488 0.631923L13.1336 1.14186L13.1336 1.14191L11.3488 0.631976Z" fill="#4CAF4F" mask="url(#path-1-inside-1_60_176)"/>
<path d="M6.27496 15.5318C6.15066 15.6066 5.98994 15.5663 5.91565 15.4421C5.8412 15.3182 5.88154 15.1573 6.00536 15.0828M6.27496 15.5318L8.53756 12.4873C8.75616 12.356 9.04446 12.4078 9.17926 12.6028M6.27496 15.5318L9.30783 13.7123H9.30799L9.30832 13.7122M6.27496 15.5318L10.4723 14.0905C10.5783 14.0269 10.6531 13.9262 10.6829 13.8066M6.00536 15.0828L9.03839 13.2633C9.14433 13.1997 9.21928 13.0988 9.24912 12.9796M6.00536 15.0828L6.03606 15.134L6.14006 15.3074L6.14027 15.3077L6.18713 15.3858L6.24408 15.4808L6.24419 15.4807L6.24425 15.4807L6.24449 15.4805M6.00536 15.0828L6.03612 15.134M9.24912 12.9796C9.28192 12.8488 9.25699 12.7149 9.17926 12.6028M9.24912 12.9796L9.32398 12.9984L9.31683 12.8445C9.31191 12.7386 9.28092 12.6446 9.22851 12.569L9.22836 12.5688L9.17926 12.6028M9.24912 12.9796L9.32398 12.9984L9.33136 13.1572L9.17952 13.2483H9.17931L9.0691 13.3144L9.06908 13.3144L9.06905 13.3144L6.03623 15.1339M9.17926 12.6028L9.22832 12.5688L6.98901 16.7213C7.08423 16.664 7.11573 16.5401 7.05799 16.444C7.00073 16.3486 6.87647 16.3173 6.78076 16.3746L9.81363 14.5552C9.88333 14.5134 9.95636 14.4818 10.0309 14.4601L10.5013 14.1389L10.5014 14.1388L10.5273 14.1212C10.6376 14.0458 10.7106 13.9414 10.7406 13.8212L10.7407 13.8211L10.6829 13.8066M6.03623 15.1339C6.13168 15.0769 6.25591 15.1078 6.31348 15.2032C6.3136 15.2034 6.31372 15.2037 6.31385 15.2039C6.37108 15.2999 6.33952 15.4234 6.24449 15.4805M6.03623 15.1339C6.03619 15.1339 6.03615 15.134 6.03612 15.134M6.03623 15.1339L6.03612 15.134M6.24449 15.4805L9.27711 13.6613L9.27717 13.6612L9.27732 13.6611C9.27742 13.6611 9.27751 13.661 9.2776 13.661L9.30783 13.7114L9.30799 13.7116L9.30832 13.7122M6.24449 15.4805L6.1405 15.3076L6.1403 15.3072L6.10511 15.2487L6.03612 15.134M9.30832 13.7122V13.6417C9.36684 13.6034 9.4204 13.5589 9.46822 13.5094L9.96744 13.2488L9.96746 13.2488L9.99511 13.2343C10.0754 13.1925 10.1563 13.1729 10.2332 13.1729C10.2747 13.1729 10.3176 13.178 10.3613 13.1888C10.3613 13.1889 10.3613 13.1889 10.3613 13.1889C10.3615 13.1889 10.3616 13.1889 10.3618 13.189L10.4595 12.7966M9.30832 13.7122L9.99742 13.2987C10.103 13.2354 10.2267 13.2169 10.3469 13.2468C10.4664 13.2766 10.5673 13.3514 10.6308 13.4572C10.6942 13.5631 10.7127 13.6872 10.6829 13.8066M10.4595 12.7966C10.4595 12.7966 10.4594 12.7966 10.4594 12.7966M10.4595 12.7966C10.6986 12.8563 10.9019 13.0073 11.0286 13.2183L11.0797 13.1877M10.4595 12.7966L10.4739 12.7387M10.4594 12.7966L10.3614 13.1889C10.4972 13.2228 10.6097 13.3062 10.6817 13.4263C10.6818 13.4264 10.6818 13.4265 10.6818 13.4265C10.6818 13.4265 10.6818 13.4265 10.6819 13.4265C10.7541 13.5473 10.7745 13.6857 10.7407 13.8209L10.7407 13.8211L10.6829 13.8066M10.4594 12.7966C10.4594 12.7966 10.4593 12.7965 10.4593 12.7965L10.4587 12.7964C10.387 12.7786 10.3143 12.7695 10.2421 12.7688M10.4594 12.7966L10.4739 12.7387M10.0218 14.9019L10.2834 14.745L10.5532 14.9041C10.634 14.9517 10.695 15.0114 10.7363 15.0804L10.7365 15.0806C10.7365 15.0807 10.7365 15.0808 10.7366 15.0809L10.6857 15.1115M10.0218 14.9019L10.7956 15.4755C10.8294 15.3398 10.8088 15.2015 10.7366 15.0809L10.6857 15.1115M10.0218 14.9019L10.0525 14.9531M10.0218 14.9019L10.0218 14.9019L10.0525 14.9531M10.6857 15.1115C10.5547 14.8932 10.2705 14.8222 10.0525 14.9531M10.6857 15.1115C10.7493 15.2173 10.7678 15.3416 10.738 15.4611L10.0525 14.9531M11.1279 14.8312C11.1301 14.8348 11.1323 14.8384 11.1345 14.8421L11.1279 14.8312ZM11.1279 14.8312C11.1122 14.8434 11.0963 14.8554 11.0801 14.867C11.0812 14.8687 11.0823 14.8705 11.0833 14.8723L11.1279 14.8312ZM11.0556 14.1234C11.0891 14.0593 11.1152 13.9909 11.1331 13.9192L11.0556 14.1234ZM11.0556 14.1234C11.0723 14.1338 11.0888 14.1445 11.1052 14.1556C11.1424 14.0863 11.1713 14.012 11.1909 13.9335C11.2547 13.6785 11.2152 13.4137 11.0797 13.1877M11.0556 14.1234L11.1331 13.9191C11.1929 13.6799 11.1552 13.4296 11.0288 13.2187L11.0287 13.2184C11.0286 13.2184 11.0286 13.2183 11.0286 13.2183L11.0797 13.1877M11.0797 13.1877C10.9444 12.962 10.7292 12.8025 10.4739 12.7387M10.4739 12.7387L10.2368 12.7088M10.2368 12.7088C10.239 12.7288 10.2407 12.7489 10.2421 12.7688M10.2368 12.7088C10.2356 12.7088 10.2344 12.7088 10.2332 12.7088C10.0762 12.7088 9.92207 12.749 9.78038 12.823M10.2368 12.7088L9.78038 12.823M10.2421 12.7688C10.2428 12.7797 10.2434 12.7906 10.2439 12.8014L10.2332 12.8019L9.94506 12.8153M10.2421 12.7688C10.2391 12.7688 10.2361 12.7688 10.2332 12.7688C10.1352 12.7689 10.0381 12.7846 9.94506 12.8153M9.94506 12.8153L9.78038 12.823M9.94506 12.8153C9.89781 12.8309 9.85161 12.8505 9.80691 12.8738C9.79068 12.8823 9.77466 12.8912 9.75884 12.9007L9.75868 12.9008L9.72568 12.9206M9.78038 12.823L9.5159 13.0465L9.51599 13.0464L9.69928 13.0923C9.69927 13.0924 9.69926 13.0924 9.69925 13.0924C9.71355 13.0353 9.72231 12.9779 9.72568 12.9206M9.78038 12.823L9.70953 12.6872M9.78038 12.823C9.77303 12.6649 9.73135 12.5092 9.65136 12.3702C9.63317 12.3783 9.61515 12.3867 9.59731 12.3955M9.72568 12.9206C9.72756 12.8888 9.72777 12.8571 9.72635 12.8255C9.72426 12.7789 9.71862 12.7327 9.70953 12.6872M9.72568 12.9206L9.70953 12.6872M9.70953 12.6872L9.56565 12.4116C9.57614 12.4061 9.58669 12.4008 9.59731 12.3955M9.70953 12.6872L9.56077 12.3386C9.57368 12.3572 9.58586 12.3762 9.59731 12.3955M9.70953 12.6872C9.68914 12.5852 9.65137 12.4867 9.59731 12.3955M10.7889 14.5044L10.8683 14.3699C10.8339 14.4021 10.797 14.4317 10.7576 14.4586C10.7425 14.4689 10.7271 14.4788 10.7113 14.4883L10.7111 14.4884L10.6775 14.5086L10.7889 14.5044ZM3.37813 12.3448L3.32537 12.317C3.31567 12.3345 3.29153 12.378 3.25586 12.4422C3.24703 12.4581 3.23749 12.4753 3.22729 12.4937C3.24547 12.5028 3.26382 12.5107 3.28219 12.5176C3.31356 12.4611 3.34554 12.4035 3.37813 12.3448ZM7.52511 17.6154C7.52506 17.6154 7.52501 17.6155 7.52496 17.6155L7.52511 17.6154Z" fill="#4CAF4F" stroke="#4CAF4F" stroke-width="0.928093"/>
<path d="M19.2269 13.1809L19.2268 13.181L19.2269 13.1809ZM19.2269 13.1809C19.1296 13.0068 19.1336 12.7922 19.2365 12.6206L19.2269 13.1809ZM13.4853 12.7687C13.4127 12.7693 13.3398 12.7785 13.2679 12.7965L13.4853 12.7687ZM13.4853 12.7687C13.4866 12.7487 13.4884 12.7288 13.4905 12.7088L13.4853 12.7687ZM18.8092 13.5064L18.7698 13.4354L18.8092 13.5064ZM17.691 15.1339C17.6909 15.1338 17.6909 15.1338 17.6908 15.1337L17.6909 15.1338L17.691 15.1339ZM16.2022 17.6158C16.2021 17.6158 16.202 17.6157 16.2019 17.6156L16.2022 17.6158ZM16.2017 17.6155L16.2018 17.6156L16.2017 17.6155Z" fill="#4CAF4F" stroke="#4CAF4F" stroke-width="0.928093"/>
</svg>
