<svg width="61" height="51" viewBox="0 0 61 51" fill="none" xmlns="http://www.w3.org/2000/svg">
<path d="M47.5575 23.282C49.9174 21.9361 51.6522 19.9566 52.4725 17.6737C52.7225 17.957 52.9575 18.2508 53.1775 18.555C54.6875 20.6362 55.5 23.1466 55.5 26.1383C55.5 30.7362 53.4175 33.9508 51.3 36.0112C50.3348 36.9495 49.2252 37.7775 48 38.4737V42.2841C48.0003 42.7631 47.8874 43.2374 47.6677 43.68C47.448 44.1225 47.1258 44.5247 46.7195 44.8635C46.3132 45.2022 45.8308 45.471 45.2998 45.6543C44.7689 45.8377 44.1997 45.932 43.625 45.932H40.5C39.5054 45.932 38.5516 45.6028 37.8483 45.0167C37.1451 44.4307 36.75 43.6358 36.75 42.807H31.75C31.75 43.6358 31.3549 44.4307 30.6516 45.0167C29.9484 45.6028 28.9946 45.932 28 45.932H24.875C23.7147 45.932 22.6019 45.5479 21.7814 44.8642C20.9609 44.1805 20.5 43.2531 20.5 42.2862V40.8633C20.1083 40.7532 19.7214 40.6316 19.34 40.4987C17.4149 39.8392 15.661 38.8757 14.175 37.6612C12.6024 36.3396 11.2525 34.8461 10.1625 33.2216C10.0815 33.087 9.9657 32.969 9.8235 32.8761C9.6813 32.7832 9.51618 32.7176 9.34 32.6841C8.26701 32.5352 7.29223 32.0739 6.58907 31.3822C5.88592 30.6906 5.50001 29.8135 5.5 28.907V25.255C5.5 23.4987 7.025 22.0008 9.1 21.7133C9.3175 21.682 9.64 21.5008 9.7925 21.1216C10.2725 19.9195 11.205 18.1341 12.925 16.7008C14.1646 15.6883 15.5581 14.8156 17.07 14.105C17.41 13.9425 17.725 13.8029 18 13.6883V7.74454C18 5.79037 20.825 4.98829 22.35 6.25287C23.175 6.93829 24.375 7.85079 25.7025 8.61537C27.0275 9.37787 28.295 9.87996 29.3375 9.99037C28.1012 12.0325 27.7059 14.357 28.2125 16.605C28.665 18.5987 30.4975 19.8591 32.2175 20.455L41.4575 23.6425C43.18 24.2362 45.5425 24.4237 47.5575 23.28V23.282ZM20.5 23.0133C21.163 23.0133 21.7989 22.7938 22.2678 22.4031C22.7366 22.0124 23 21.4825 23 20.93C23 20.3774 22.7366 19.8475 22.2678 19.4568C21.7989 19.0661 21.163 18.8466 20.5 18.8466C19.837 18.8466 19.2011 19.0661 18.7322 19.4568C18.2634 19.8475 18 20.3774 18 20.93C18 21.4825 18.2634 22.0124 18.7322 22.4031C19.2011 22.7938 19.837 23.0133 20.5 23.0133ZM46.1475 21.5612C47.3073 20.8993 48.2869 20.0413 49.0226 19.0431C49.7583 18.0449 50.2335 16.9288 50.4175 15.7675C50.6037 14.5732 50.4771 13.3594 50.0464 12.2098C49.6157 11.0602 48.8911 10.0021 47.9225 9.10827C46.9538 8.21447 45.7643 7.50624 44.4356 7.03236C43.107 6.55849 41.6709 6.33022 40.2263 6.3633C38.7816 6.39637 37.3627 6.68999 36.0673 7.22394C34.7719 7.75789 33.6308 8.51948 32.7225 9.45625C31.8143 10.393 31.1605 11.4827 30.8061 12.6503C30.4518 13.8179 30.4053 15.0356 30.67 16.2195C30.7325 16.4904 30.8425 16.7445 30.995 16.98C31.12 17.1737 31.27 17.355 31.445 17.5216C31.9 17.9591 32.51 18.3008 33.175 18.532L42.415 21.7195C43.64 22.1425 45.0525 22.1841 46.1475 21.5612Z" fill="white"/>
</svg>
