<svg width="23" height="24" viewBox="0 0 23 24" fill="none" xmlns="http://www.w3.org/2000/svg">
<path fill-rule="evenodd" clip-rule="evenodd" d="M0.725708 12.0493C0.725708 5.89849 5.71196 0.912235 11.8628 0.912235C18.0137 0.912235 22.9999 5.89849 22.9999 12.0493C22.9999 18.2002 18.0137 23.1865 11.8628 23.1865C5.71196 23.1865 0.725708 18.2002 0.725708 12.0493Z" fill="#1A6C8C"/>
<path fill-rule="evenodd" clip-rule="evenodd" d="M17.8026 12.0411C17.8026 12.4428 17.7617 12.844 17.6813 13.235C17.603 13.6167 17.487 13.9915 17.335 14.3497C17.1865 14.7016 17.0024 15.0408 16.7871 15.357C16.5751 15.6713 16.3309 15.9661 16.0626 16.2349C15.7937 16.5025 15.4979 16.7461 15.1838 16.959C14.8665 17.1727 14.5269 17.3566 14.1747 17.5058C13.8159 17.657 13.4403 17.7728 13.0589 17.851C12.6674 17.9315 12.2648 17.9727 11.8625 17.9727C11.4599 17.9727 11.0573 17.9315 10.6664 17.851C10.2844 17.7728 9.90877 17.657 9.55028 17.5058C9.19817 17.3566 8.85822 17.1727 8.54092 16.959C8.22681 16.7461 7.93096 16.5025 7.66267 16.2349C7.3941 15.9661 7.14987 15.6713 6.93756 15.357C6.7235 15.0408 6.53902 14.7016 6.38995 14.3497C6.23795 13.9915 6.12166 13.6167 6.04305 13.235C5.96359 12.844 5.92297 12.4428 5.92297 12.0411C5.92297 11.6391 5.96357 11.2371 6.04308 10.847C6.12168 10.4652 6.23797 10.0899 6.38998 9.73221C6.53905 9.38003 6.72353 9.0406 6.93758 8.72431C7.14989 8.40979 7.39412 8.11551 7.66269 7.84644C7.93099 7.57882 8.22683 7.33584 8.54095 7.12326C8.85825 6.90863 9.19819 6.72474 9.5503 6.57528C9.9088 6.42378 10.2844 6.30766 10.6664 6.23005C11.0574 6.15012 11.4599 6.10956 11.8625 6.10956C12.2648 6.10956 12.6674 6.15012 13.0589 6.23005C13.4403 6.30768 13.8159 6.4238 14.1747 6.57528C14.5269 6.72472 14.8665 6.90863 15.1838 7.12326C15.4979 7.33584 15.7938 7.57882 16.0626 7.84644C16.3309 8.11551 16.5752 8.40979 16.7872 8.72431C17.0024 9.0406 17.1865 9.38005 17.335 9.73221C17.487 10.0899 17.603 10.4652 17.6813 10.847C17.7617 11.2371 17.8026 11.6391 17.8026 12.0411ZM9.69817 7.4595C8.28361 8.12653 7.22785 9.4281 6.89864 10.9967C7.03237 10.9979 9.14621 11.0245 11.5817 10.3784C10.7038 8.82074 9.76575 7.5496 9.69817 7.4595ZM12.002 11.1583C9.39014 11.9392 6.88385 11.883 6.79395 11.8795C6.79249 11.9339 6.78988 11.9866 6.78988 12.0411C6.78988 13.3424 7.2815 14.5287 8.08957 15.4257C8.08782 15.4231 9.476 12.9639 12.2134 12.0799C12.2795 12.0579 12.3468 12.0382 12.4135 12.0191C12.2862 11.7312 12.1473 11.4428 12.002 11.1583ZM15.2125 8.23948C14.3194 7.45312 13.1468 6.97614 11.8625 6.97614C11.4503 6.97614 11.0504 7.02596 10.6672 7.11806C10.7432 7.22002 11.696 8.48219 12.5635 10.0728C14.4775 9.35628 15.2 8.258 15.2125 8.23948ZM12.7593 12.8584C12.748 12.8622 12.7367 12.8654 12.7257 12.8694C9.73276 13.9113 8.75539 16.011 8.74481 16.0339C9.60597 16.7026 10.6861 17.1061 11.8625 17.1061C12.565 17.1061 13.2341 16.9633 13.8429 16.7047C13.7678 16.2621 13.4731 14.7109 12.7593 12.8584ZM14.6971 16.2419C15.8361 15.4743 16.645 14.2556 16.8707 12.8439C16.7662 12.8103 15.3471 12.3617 13.7097 12.6238C14.3751 14.4496 14.6454 15.9366 14.6971 16.2419ZM12.9539 10.8276C13.0717 11.0691 13.1857 11.315 13.291 11.5621C13.3284 11.6507 13.3649 11.7376 13.4006 11.8245C15.1432 11.6055 16.86 11.9739 16.9334 11.9889C16.9218 10.7882 16.4916 9.68614 15.7799 8.82336C15.7703 8.83695 14.9567 10.0108 12.9539 10.8276Z" fill="white"/>
</svg>
